<svg width="272.000000" height="292.000000" viewBox="0 0 272 292" fill="none" xmlns="http://www.w3.org/2000/svg" xmlns:xlink="http://www.w3.org/1999/xlink">
	<desc>
			Created with Pixso.
	</desc>
	<defs>
		<clipPath id="clip2_1">
			<rect id="Frame 1" width="272.000000" height="292.000000" fill="white" fill-opacity="0"/>
		</clipPath>
	</defs>
	<rect id="Frame 1" width="272.000000" height="292.000000" fill="#FFFFFF" fill-opacity="1.000000"/>
	<g clip-path="url(#clip2_1)">
		<path id="Rectangle 1" d="M99 84.5L141 47L206 47L247 84.5L247 187.5L206 221L141 221L99 187.5L99 84.5Z" fill="#87C2E6" fill-opacity="1.000000" fill-rule="evenodd"/>
		<path id="Rectangle 1" d="M68 94.5L110 57L175 57L216 94.5L216 197.5L175 231L110 231L68 197.5L68 94.5Z" fill="#87E6D6" fill-opacity="1.000000" fill-rule="evenodd"/>
		<path id="Rectangle 1" d="M26 107.5L68 70L133 70L174 107.5L174 210.5L133 244L68 244L26 210.5L26 107.5Z" fill="#74E7F5" fill-opacity="1.000000" fill-rule="evenodd"/>
		<path id="Rectangle 1" d="M247 187.5L206 221L141 221L99 187.5L99 84.5L141 47L206 47L247 84.5L247 187.5ZM110 57L175 57L216 94.5L216 197.5L175 231L110 231L68 197.5L68 94.5L110 57ZM68 94.5L110 57M110 57L175 57M175 57L216 94.5M216 94.5L216 197.5M216 197.5L175 231M175 231L110 231M110 231L68 197.5M68 197.5L68 94.5M68 70L133 70L174 107.5L174 210.5L133 244L68 244L26 210.5L26 107.5L68 70ZM26 107.5L68 70M68 70L133 70M133 70L174 107.5M174 107.5L174 210.5M174 210.5L133 244M133 244L68 244M68 244L26 210.5M26 210.5L26 107.5" stroke="#065BD3" stroke-opacity="1.000000" stroke-width="1.000000"/>
	</g>
</svg>
